<?xml version="1.0" encoding="UTF-8"?>
<svg id="_레이어_1" data-name="레이어 1" xmlns="http://www.w3.org/2000/svg" viewBox="0 0 501.47 426.75">
  <defs>
    <style>
      .cls-1 {
        fill: none;
        stroke: #ff4200;
        stroke-miterlimit: 10;
        stroke-width: 25px;
      }
    </style>
  </defs>
  <path class="cls-1" d="m376.66,414.68s-12.29-31.16,63.08-80.15c69.99-45.5,45.96-76.27,42.3-80.31-.28-.31-.55-.64-.81-.97-3-3.95-23.95-28.1-64.34,7.2,0,0-48.13,37.71-46.77-30.03,1.36-67.73-.01-163.89-.01-163.89,0-.55,0-1.45.01-2,0,0,1.09-39.53-35.07-30.58,0,0-16.45,3.95-16.04,30.36s0,156.91,0,156.91c0,.55,0,.55,0,0V49.72c0-.69-.05-1.37-.15-2.05-.81-5.45-5.47-28.41-26.82-34.71-1.5-.44-3.06-.56-4.61-.36-6.02.79-21.19,4.74-25.52,24.55-.2.91-.28,1.84-.28,2.77v184.02q0,.55,0,0l-.45-156.85c0-1.42-.22-2.82-.65-4.17-2.15-6.8-10.18-25.95-31.52-21.06,0,0-22.02,4.1-22.02,36.13v143.24c0,.55,0,.55,0,0l-.33-106.38c-.01-3.91-1.64-7.63-4.48-10.06-5.17-4.42-14.63-10.45-27.27-9.8-2.24.11-4.55.83-6.76,1.85-8.73,4.03-14.99,12.74-17.19,23-.91,4.24-1.67,9.48-2.01,15.77-.06,1.2-.15,2.43-.14,3.7v237.82c0,.69-.05,1.38-.15,2.07-.73,4.72-4.69,21.26-24.6,22.43-22.56,1.33-46.31-22.51-31.47-53.69.88-1.86,2.21-3.43,3.81-4.62h0c2.02-1.5,4.41-2.3,6.86-2.3h35.11q.55,0,0,0H63.85c-1.05,0-2.1-.14-3.11-.44-5.59-1.65-22.36-8.83-20.7-35.18,1.99-31.58,17.86-30.05,17.86-30.05.55.05,1.45.1,2,.1h73.05q.55,0,0,0H35.88c-2.19,0-4.35-.63-6.22-1.86-7.01-4.61-22.77-17.76-15.11-38.98.26-.71.47-1.44.62-2.19.58-2.83,3.49-11.53,17.63-17.93,1.38-.62,2.86-.94,4.36-.97l99.41-2.01c.55-.01.55-.01,0,0l-90.09,1.49c-3.2.05-6.3-1.25-8.58-3.66-4.3-4.53-10.08-13.65-9.82-29.74,0-.17,0-.35,0-.52-.08-2.64,0-27.29,31.91-27.1,33.72.2,84.11.4,84.11.4"/>
  <circle class="cls-1" cx="376.52" cy="413.91" r=".35"/>
</svg>