<?xml version="1.0" encoding="UTF-8"?>
<svg id="_레이어_1" data-name="레이어 1" xmlns="http://www.w3.org/2000/svg" viewBox="0 0 627.99 533.44">
  <defs>
    <style>
      .cls-1 {
        fill: none;
        stroke: #fff;
        stroke-miterlimit: 10;
        stroke-width: 25px;
      }
    </style>
  </defs>
  <path class="cls-1" d="m473.36,521.47s-15.56-39.43,79.83-101.44c88.58-57.58,58.17-96.52,53.54-101.63-.36-.39-.7-.8-1.02-1.23-3.8-5-30.31-35.56-81.42,9.11,0,0-60.91,47.72-59.19-38,1.72-85.72-.02-207.67-.02-207.67,0-.55,0-1.45.01-2,0,0,1.38-50.29-44.38-38.96,0,0-20.82,4.99-20.3,38.42s0,198.84,0,198.84c0,.55,0,.55,0,0V59.6c0-.87-.06-1.73-.19-2.59-1.03-6.89-6.92-35.95-33.94-43.93-1.9-.56-3.88-.71-5.83-.46-7.62,1-26.82,6-32.29,31.06-.25,1.15-.35,2.32-.35,3.5v233.15q0,.55,0,0l-.57-198.76c0-1.8-.28-3.57-.82-5.27-2.72-8.61-12.89-32.84-39.9-26.65,0,0-27.87,5.19-27.87,45.72v181.55c0,.55,0,.55,0,0l-.42-134.89c-.02-4.94-2.07-9.65-5.67-12.73-6.54-5.59-18.51-13.22-34.51-12.41-2.84.14-5.76,1.06-8.55,2.34-11.04,5.1-18.97,16.13-21.75,29.11-1.15,5.37-2.12,11.99-2.54,19.96-.08,1.51-.19,3.08-.18,4.69v300.97c0,.88-.06,1.75-.19,2.61-.92,5.98-5.94,26.91-31.13,28.39-28.55,1.68-58.61-28.48-39.83-67.95,1.12-2.35,2.8-4.34,4.82-5.85h0c2.55-1.9,5.58-2.92,8.68-2.92h44.7q.55,0,0,0h-94.58c-1.33,0-2.65-.18-3.93-.55-7.08-2.09-28.3-11.18-26.2-44.53,2.52-39.96,22.86-38.01,22.86-38.01.55.05,1.45.1,2,.1h92.97q.55,0,0,0H42.09c-2.77,0-5.51-.8-7.87-2.35-8.87-5.84-28.81-22.48-19.13-49.33.33-.9.59-1.83.79-2.77.74-3.58,4.42-14.6,22.31-22.69,1.75-.79,3.62-1.19,5.52-1.23l126.07-2.55c.55-.01.55-.01,0,0l-114.28,1.89c-4.05.07-7.97-1.58-10.86-4.63-5.44-5.74-12.76-17.27-12.42-37.63,0-.22,0-.44,0-.66-.1-3.34,0-34.53,40.39-34.29,42.67.26,106.44.51,106.44.51"/>
  <circle class="cls-1" cx="473.18" cy="520.5" r=".44"/>
</svg>